<svg xmlns="http://www.w3.org/2000/svg" xmlns:xlink="http://www.w3.org/1999/xlink" version="1.1" x="0px" y="0px" viewBox="0 0 100 100" enable-background="new 0 0 100 100" xml:space="preserve"><g><g><path fill="#000000" d="M45.983,52.941c9.511,14.35,17.347,25.9,3.735,34.92c-13.613,9.023-21.197-2.695-30.708-17.045    C9.5,56.467,7.828,40.829,15.276,35.894C22.724,30.958,36.473,38.59,45.983,52.941z"/><path d="M40.736,91.275c-8.468,0-14.587-9.234-21.673-19.928l-0.261-0.393c-4.622-6.973-7.558-14.469-8.267-21.104    c-0.716-6.693,0.919-11.725,4.603-14.166c1.545-1.024,3.382-1.542,5.46-1.542c7.912,0,18.197,7.499,25.594,18.66l0.26,0.391    c4.809,7.256,8.962,13.52,10.353,19.307c1.552,6.453-0.656,11.4-6.948,15.572C46.603,90.227,43.619,91.275,40.736,91.275z     M20.598,34.642c-1.978,0-3.722,0.492-5.184,1.46c-3.521,2.333-5.077,7.198-4.382,13.697c0.701,6.557,3.609,13.973,8.187,20.881    l0.261,0.393c7.006,10.572,13.056,19.705,21.256,19.705c2.782,0,5.675-1.023,8.844-3.123c6.093-4.037,8.234-8.816,6.738-15.037    c-1.369-5.701-5.699-12.232-10.283-19.146l-0.26-0.393C38.467,42.05,28.349,34.642,20.598,34.642z"/></g><g><path d="M14.175,38.403c0,0,0.909,0.083,2.254,0.289c0.673,0.099,1.456,0.229,2.292,0.379c0.417,0.079,0.851,0.15,1.288,0.24    c0.437,0.087,0.881,0.175,1.326,0.264c0.443,0.096,0.886,0.19,1.322,0.285c0.437,0.09,0.863,0.198,1.277,0.291    c0.827,0.193,1.597,0.387,2.254,0.563c1.315,0.347,2.182,0.632,2.182,0.632s-0.908-0.083-2.253-0.289    c-0.673-0.1-1.457-0.228-2.292-0.38c-0.417-0.078-0.851-0.15-1.287-0.24c-0.438-0.088-0.882-0.176-1.327-0.265    c-0.442-0.096-0.885-0.192-1.322-0.286c-0.436-0.091-0.862-0.197-1.276-0.291c-0.827-0.194-1.597-0.387-2.254-0.563    C15.042,38.687,14.175,38.403,14.175,38.403z"/></g><g><path d="M12.229,42.456c0,0,0.455,0.064,1.248,0.192c0.792,0.135,1.927,0.308,3.283,0.549c1.357,0.234,2.938,0.522,4.628,0.843    c0.845,0.163,1.718,0.331,2.605,0.501c0.886,0.177,1.786,0.355,2.686,0.534c0.899,0.187,1.797,0.372,2.682,0.555    c0.883,0.188,1.753,0.374,2.595,0.553c1.682,0.363,3.249,0.713,4.59,1.027c1.342,0.307,2.455,0.59,3.237,0.774    c0.781,0.191,1.225,0.309,1.225,0.309s-0.456-0.064-1.249-0.192c-0.792-0.134-1.927-0.308-3.283-0.548    c-1.357-0.234-2.938-0.522-4.627-0.843c-0.845-0.163-1.718-0.332-2.605-0.502c-0.886-0.177-1.786-0.355-2.686-0.535    c-0.899-0.186-1.797-0.372-2.682-0.555c-0.883-0.189-1.753-0.374-2.594-0.553c-1.682-0.364-3.25-0.715-4.59-1.027    c-1.342-0.307-2.456-0.588-3.237-0.773C12.672,42.573,12.229,42.456,12.229,42.456z"/></g><g><path d="M12.442,46.948c0,0,0.505,0.074,1.386,0.22c0.879,0.152,2.139,0.352,3.645,0.623c1.506,0.265,3.261,0.588,5.139,0.945    c0.938,0.182,1.908,0.37,2.893,0.561c0.984,0.196,1.984,0.395,2.984,0.595c0.998,0.205,1.997,0.412,2.979,0.614    c0.981,0.208,1.948,0.414,2.883,0.612c1.869,0.4,3.611,0.787,5.102,1.131c1.492,0.336,2.729,0.645,3.599,0.848    c0.867,0.209,1.361,0.336,1.361,0.336s-0.505-0.074-1.385-0.221c-0.88-0.15-2.139-0.35-3.645-0.621    c-1.506-0.266-3.261-0.588-5.139-0.947c-0.938-0.182-1.908-0.369-2.893-0.559c-0.984-0.198-1.983-0.397-2.984-0.595    c-0.998-0.207-1.997-0.412-2.979-0.615c-0.981-0.209-1.948-0.413-2.882-0.612c-1.869-0.4-3.611-0.787-5.102-1.13    c-1.492-0.338-2.729-0.645-3.599-0.848C12.937,47.076,12.442,46.948,12.442,46.948z"/></g><g><path d="M13.027,51.514c0,0,0.416,0.059,1.14,0.172c0.723,0.119,1.759,0.273,2.996,0.49c1.238,0.211,2.68,0.469,4.222,0.76    c0.771,0.148,1.567,0.301,2.376,0.455c0.808,0.16,1.629,0.324,2.45,0.486c0.819,0.17,1.639,0.34,2.445,0.508    c0.807,0.164,1.598,0.342,2.366,0.506c1.534,0.332,2.963,0.656,4.185,0.943c1.223,0.283,2.238,0.545,2.95,0.717    c0.711,0.178,1.116,0.287,1.116,0.287s-0.416-0.057-1.14-0.17c-0.723-0.121-1.759-0.275-2.997-0.49    c-1.238-0.211-2.68-0.469-4.222-0.762c-0.771-0.146-1.569-0.291-2.376-0.455c-0.808-0.16-1.629-0.322-2.45-0.486    c-0.819-0.17-1.639-0.34-2.445-0.506c-0.806-0.174-1.599-0.344-2.366-0.508c-1.534-0.334-2.962-0.656-4.185-0.943    c-1.224-0.283-2.238-0.545-2.951-0.717C13.432,51.623,13.027,51.514,13.027,51.514z"/></g><g><path d="M15.586,56.482c0,0,0.417,0.057,1.145,0.172c0.726,0.121,1.766,0.275,3.008,0.492c1.244,0.211,2.692,0.473,4.24,0.764    c0.774,0.148,1.574,0.303,2.386,0.457c0.812,0.162,1.636,0.326,2.461,0.49c0.823,0.17,1.646,0.34,2.456,0.508    c0.811,0.164,1.605,0.344,2.376,0.508c1.54,0.334,2.975,0.66,4.203,0.949c1.229,0.283,2.247,0.547,2.962,0.719    c0.714,0.178,1.121,0.287,1.121,0.287s-0.417-0.057-1.144-0.172c-0.726-0.119-1.767-0.275-3.009-0.492    c-1.243-0.211-2.691-0.471-4.24-0.764c-0.774-0.148-1.575-0.295-2.386-0.459c-0.812-0.16-1.636-0.324-2.46-0.488    c-0.823-0.17-1.646-0.34-2.456-0.508c-0.809-0.174-1.605-0.344-2.375-0.51c-1.541-0.334-2.975-0.658-4.203-0.947    c-1.229-0.283-2.248-0.547-2.963-0.719C15.993,56.592,15.586,56.482,15.586,56.482z"/></g><g><path d="M18.565,61.535c0,0,0.403,0.053,1.104,0.162c0.702,0.115,1.706,0.264,2.905,0.473c1.201,0.203,2.598,0.453,4.093,0.734    c0.747,0.143,1.519,0.291,2.303,0.439c0.784,0.156,1.579,0.314,2.375,0.471c0.794,0.166,1.588,0.33,2.371,0.492    c0.782,0.158,1.549,0.334,2.292,0.492c1.486,0.322,2.871,0.637,4.056,0.918c1.186,0.275,2.168,0.531,2.859,0.697    c0.688,0.174,1.081,0.279,1.081,0.279s-0.403-0.053-1.105-0.162c-0.7-0.115-1.705-0.264-2.904-0.473    c-1.2-0.203-2.598-0.453-4.092-0.734c-0.747-0.143-1.521-0.281-2.304-0.439c-0.783-0.156-1.579-0.314-2.374-0.473    c-0.794-0.164-1.589-0.328-2.371-0.492c-0.781-0.166-1.549-0.332-2.293-0.49c-1.486-0.324-2.871-0.639-4.055-0.918    c-1.186-0.275-2.168-0.531-2.859-0.697C18.957,61.641,18.565,61.535,18.565,61.535z"/></g><g><path d="M21.971,66.674c0,0,1.161,0.131,2.886,0.408c0.863,0.135,1.868,0.305,2.941,0.5c0.536,0.1,1.092,0.195,1.653,0.309    c0.562,0.109,1.133,0.223,1.704,0.334c0.569,0.119,1.139,0.238,1.7,0.355c0.561,0.115,1.11,0.244,1.643,0.359    c1.065,0.238,2.056,0.473,2.903,0.686c1.696,0.418,2.816,0.75,2.816,0.75s-1.161-0.131-2.886-0.408    c-0.863-0.133-1.868-0.305-2.941-0.5c-0.537-0.102-1.092-0.195-1.653-0.309c-0.562-0.111-1.133-0.223-1.704-0.336    c-0.569-0.119-1.139-0.238-1.7-0.355c-0.561-0.115-1.109-0.244-1.643-0.359c-1.065-0.238-2.056-0.473-2.904-0.686    C23.091,67.006,21.971,66.674,21.971,66.674z"/></g><g><path d="M25.351,71.773c0,0,1.161,0.131,2.886,0.408c0.863,0.133,1.868,0.305,2.941,0.5c0.536,0.1,1.091,0.195,1.653,0.309    c0.562,0.111,1.133,0.223,1.704,0.334c0.569,0.119,1.139,0.238,1.699,0.355c0.562,0.113,1.11,0.244,1.643,0.359    c1.065,0.238,2.056,0.473,2.903,0.686c1.696,0.418,2.816,0.75,2.816,0.75s-1.161-0.131-2.886-0.406    c-0.863-0.137-1.867-0.307-2.941-0.502c-0.536-0.1-1.092-0.195-1.653-0.309c-0.562-0.111-1.133-0.223-1.704-0.336    c-0.569-0.119-1.139-0.238-1.7-0.355c-0.561-0.115-1.11-0.244-1.643-0.359c-1.065-0.238-2.057-0.473-2.904-0.686    C26.471,72.104,25.351,71.771,25.351,71.773z"/></g><g><path d="M28.73,76.873c0,0,1.161,0.131,2.886,0.406c0.863,0.135,1.867,0.307,2.941,0.502c0.536,0.1,1.092,0.195,1.653,0.307    c0.562,0.111,1.133,0.225,1.704,0.336c0.569,0.119,1.139,0.238,1.699,0.355c0.562,0.115,1.11,0.244,1.644,0.359    c1.065,0.238,2.056,0.473,2.903,0.686c1.696,0.418,2.816,0.75,2.816,0.75s-1.161-0.131-2.886-0.406    c-0.863-0.137-1.867-0.307-2.941-0.502c-0.536-0.102-1.092-0.195-1.653-0.309c-0.562-0.111-1.133-0.223-1.704-0.336    c-0.569-0.119-1.139-0.238-1.7-0.355c-0.561-0.115-1.11-0.244-1.643-0.359c-1.065-0.238-2.056-0.473-2.904-0.686    C29.85,77.203,28.73,76.873,28.73,76.873z"/></g><g><path d="M17.762,37.104c0,0-0.102,1.062-0.335,2.639c-0.113,0.789-0.258,1.707-0.426,2.688c-0.087,0.49-0.168,0.998-0.267,1.511    c-0.096,0.514-0.194,1.035-0.292,1.557c-0.105,0.521-0.209,1.041-0.312,1.553c-0.1,0.513-0.215,1.014-0.318,1.5    c-0.21,0.973-0.42,1.879-0.61,2.653c-0.375,1.549-0.678,2.57-0.678,2.57c0,0,0.102-1.061,0.334-2.639    c0.113-0.788,0.258-1.706,0.427-2.686c0.087-0.49,0.167-0.999,0.267-1.511c0.096-0.514,0.194-1.036,0.292-1.558    c0.104-0.52,0.209-1.04,0.312-1.552c0.101-0.512,0.216-1.014,0.318-1.501c0.211-0.972,0.42-1.878,0.61-2.652    C17.459,38.126,17.762,37.104,17.762,37.104z"/></g><g><path d="M22.336,36.487c0,0-0.055,0.403-0.164,1.106c-0.116,0.701-0.264,1.708-0.473,2.908c-0.203,1.202-0.454,2.603-0.735,4.098    c-0.143,0.749-0.291,1.521-0.441,2.307c-0.155,0.784-0.313,1.581-0.471,2.378c-0.165,0.795-0.33,1.591-0.492,2.374    c-0.159,0.783-0.333,1.551-0.492,2.295c-0.323,1.49-0.638,2.877-0.919,4.062c-0.275,1.188-0.532,2.172-0.698,2.863    c-0.173,0.689-0.281,1.082-0.281,1.082s0.054-0.404,0.164-1.107c0.116-0.701,0.263-1.707,0.472-2.908    c0.204-1.201,0.454-2.602,0.736-4.098c0.144-0.748,0.283-1.523,0.442-2.307c0.155-0.784,0.313-1.581,0.471-2.377    c0.165-0.796,0.33-1.592,0.492-2.373c0.168-0.783,0.333-1.552,0.493-2.296c0.324-1.489,0.639-2.875,0.919-4.062    c0.276-1.187,0.532-2.171,0.699-2.863C22.229,36.879,22.336,36.487,22.336,36.487z"/></g><g><path d="M26.401,38.375c0,0-0.059,0.424-0.176,1.163c-0.123,0.738-0.281,1.795-0.502,3.057c-0.216,1.264-0.481,2.735-0.779,4.309    c-0.151,0.786-0.306,1.6-0.464,2.425c-0.164,0.825-0.331,1.663-0.497,2.5c-0.173,0.836-0.347,1.672-0.517,2.496    c-0.167,0.824-0.349,1.633-0.516,2.414c-0.339,1.566-0.668,3.025-0.961,4.271c-0.288,1.25-0.555,2.285-0.729,3.012    c-0.18,0.727-0.291,1.139-0.291,1.139s0.058-0.422,0.175-1.162c0.123-0.736,0.28-1.795,0.502-3.057    c0.216-1.264,0.481-2.736,0.778-4.309c0.151-0.787,0.299-1.602,0.465-2.426c0.164-0.824,0.33-1.662,0.497-2.5    c0.173-0.836,0.347-1.673,0.517-2.497c0.176-0.821,0.349-1.631,0.516-2.413c0.34-1.566,0.669-3.024,0.962-4.272    c0.288-1.249,0.554-2.284,0.729-3.011C26.29,38.788,26.401,38.375,26.401,38.375z"/></g><g><path d="M29.868,43.606c0,0-0.074,0.491-0.216,1.349c-0.149,0.855-0.345,2.082-0.61,3.547c-0.26,1.466-0.577,3.175-0.93,5.001    c-0.179,0.914-0.363,1.855-0.551,2.814c-0.192,0.959-0.388,1.932-0.584,2.904c-0.203,0.971-0.405,1.943-0.605,2.9    c-0.204,0.955-0.406,1.895-0.602,2.805c-0.394,1.82-0.775,3.514-1.113,4.965c-0.332,1.451-0.636,2.654-0.836,3.502    c-0.206,0.844-0.332,1.324-0.332,1.324s0.073-0.492,0.216-1.35c0.149-0.855,0.344-2.082,0.609-3.547    c0.26-1.467,0.577-3.176,0.93-5.002c0.178-0.914,0.363-1.857,0.551-2.816c0.192-0.957,0.389-1.93,0.584-2.902    c0.203-0.973,0.406-1.945,0.605-2.9c0.205-0.955,0.407-1.895,0.602-2.805c0.395-1.818,0.776-3.513,1.113-4.964    c0.333-1.451,0.636-2.656,0.835-3.501C29.742,44.086,29.868,43.606,29.868,43.606z"/></g><g><path d="M33.981,44.865c0,0-0.087,0.535-0.238,1.469c-0.163,0.934-0.378,2.271-0.667,3.868c-0.284,1.598-0.628,3.461-1.011,5.454    c-0.193,0.996-0.393,2.025-0.596,3.07c-0.208,1.045-0.42,2.107-0.631,3.168c-0.219,1.059-0.438,2.119-0.652,3.162    c-0.221,1.043-0.438,2.068-0.647,3.061c-0.424,1.984-0.833,3.834-1.194,5.416c-0.356,1.584-0.68,2.898-0.894,3.822    c-0.225,0.92-0.354,1.445-0.354,1.445s0.086-0.535,0.238-1.469c0.163-0.934,0.377-2.271,0.666-3.867    c0.284-1.6,0.628-3.463,1.011-5.455c0.193-0.996,0.394-2.023,0.597-3.07c0.208-1.045,0.42-2.105,0.632-3.166    c0.219-1.061,0.437-2.121,0.652-3.162c0.22-1.043,0.438-2.07,0.647-3.061c0.424-1.984,0.833-3.834,1.194-5.417    c0.356-1.585,0.679-2.898,0.893-3.821C33.853,45.392,33.981,44.865,33.981,44.865z"/></g><g><path d="M37.387,50.005c0,0-0.085,0.527-0.234,1.452c-0.16,0.92-0.372,2.24-0.657,3.816c-0.28,1.58-0.62,3.418-0.997,5.387    c-0.191,0.982-0.388,1.998-0.588,3.031c-0.205,1.031-0.415,2.078-0.623,3.127c-0.216,1.047-0.432,2.092-0.644,3.123    c-0.218,1.027-0.432,2.041-0.64,3.021c-0.419,1.957-0.822,3.783-1.18,5.346c-0.352,1.564-0.671,2.861-0.883,3.773    c-0.223,0.908-0.351,1.428-0.351,1.428s0.085-0.527,0.234-1.451c0.16-0.922,0.371-2.24,0.656-3.82    c0.28-1.576,0.62-3.416,0.998-5.383c0.19-0.984,0.388-2,0.588-3.031c0.206-1.033,0.414-2.08,0.624-3.127    c0.216-1.047,0.432-2.094,0.644-3.123c0.219-1.029,0.433-2.043,0.641-3.021c0.419-1.959,0.822-3.785,1.179-5.348    c0.353-1.564,0.671-2.861,0.883-3.773C37.26,50.524,37.387,50.005,37.387,50.005z"/></g><g><path d="M41.907,49.651c0,0-0.048,0.372-0.147,1.018c-0.105,0.646-0.237,1.57-0.427,2.673c-0.185,1.104-0.414,2.391-0.672,3.766    c-0.131,0.688-0.267,1.398-0.405,2.119c-0.143,0.721-0.289,1.451-0.434,2.184c-0.153,0.73-0.306,1.461-0.456,2.18    c-0.146,0.719-0.309,1.424-0.456,2.107c-0.3,1.367-0.593,2.641-0.856,3.729c-0.257,1.09-0.498,1.994-0.653,2.627    c-0.163,0.635-0.263,0.994-0.263,0.994s0.048-0.371,0.146-1.016c0.105-0.646,0.236-1.57,0.427-2.674    c0.185-1.105,0.414-2.393,0.672-3.766c0.132-0.688,0.259-1.4,0.406-2.119c0.144-0.721,0.289-1.453,0.435-2.184    c0.152-0.73,0.305-1.461,0.456-2.18c0.155-0.719,0.308-1.426,0.457-2.109c0.301-1.365,0.594-2.639,0.855-3.729    c0.258-1.09,0.498-1.992,0.654-2.626C41.807,50.011,41.907,49.651,41.907,49.651z"/></g><path fill="#000000" d="M75.946,59.387c0,17.99,0.216,32.574-23.174,32.574c-23.392,0-23.175-14.584-23.175-32.574   c0-17.989,10.375-32.572,23.175-32.572C65.571,26.814,75.946,41.398,75.946,59.387z"/><path d="M52.772,92.211c-10.746,0-17.261-3.025-20.504-9.518c-2.923-5.854-2.921-14.092-2.92-22.814v-0.492   c0-18.098,10.508-32.822,23.424-32.822c12.915,0,23.423,14.725,23.423,32.822v0.492c0,8.723,0.002,16.961-2.92,22.814   C70.032,89.186,63.517,92.211,52.772,92.211z M52.772,27.064c-12.641,0-22.925,14.501-22.925,32.323v0.492   c-0.001,9.037-0.001,16.844,2.869,22.59c3.148,6.307,9.522,9.242,20.057,9.242c10.535,0,16.907-2.936,20.057-9.242   c2.869-5.746,2.869-13.553,2.867-22.59v-0.492C75.696,41.565,65.413,27.064,52.772,27.064z"/><g><path fill="#000000" d="M53.062,44.682c-14.268,0-25.833-11.181-25.833-17.867c0-6.687,11.566-21.378,25.833-21.378    c14.269,0,25.833,14.692,25.833,21.378C78.896,33.501,67.331,44.682,53.062,44.682z"/></g><g><path d="M53.059,44.833c0,0-0.137-0.003-0.4-0.01c-0.265-0.011-0.655-0.002-1.17-0.038c-1.032-0.057-2.538-0.2-4.417-0.601    c-0.941-0.193-1.967-0.479-3.069-0.833c-1.099-0.365-2.265-0.825-3.478-1.39c-2.418-1.139-5.016-2.738-7.478-4.934    c-1.224-1.103-2.407-2.361-3.461-3.799c-1.025-1.448-1.979-3.077-2.389-4.965c-0.055-0.233-0.078-0.476-0.118-0.714    c-0.028-0.242-0.031-0.488-0.047-0.732c0.014-0.259,0.019-0.479,0.042-0.726c0.037-0.245,0.063-0.496,0.111-0.737    c0.185-0.966,0.511-1.906,0.909-2.817c0.796-1.828,1.871-3.564,3.116-5.206c2.491-3.28,5.674-6.217,9.384-8.458    c1.861-1.106,3.86-2.026,5.957-2.681c2.103-0.633,4.304-0.991,6.515-1.006l0.826,0.028c0.272,0.008,0.544,0.013,0.823,0.046    c0.552,0.052,1.105,0.098,1.648,0.197c1.094,0.153,2.16,0.434,3.217,0.735c2.097,0.655,4.096,1.574,5.957,2.681    c3.709,2.242,6.893,5.178,9.385,8.458c1.243,1.642,2.319,3.377,3.113,5.205c0.399,0.913,0.725,1.852,0.911,2.818    c0.047,0.241,0.071,0.486,0.108,0.728c0.024,0.249,0.03,0.481,0.042,0.746c-0.016,0.238-0.018,0.471-0.044,0.712    c-0.04,0.242-0.064,0.491-0.119,0.724c-0.409,1.888-1.364,3.517-2.389,4.965c-1.055,1.438-2.238,2.696-3.463,3.798    c-2.461,2.197-5.06,3.796-7.478,4.935c-1.213,0.564-2.379,1.025-3.478,1.39c-1.102,0.354-2.129,0.639-3.069,0.833    c-1.881,0.401-3.389,0.544-4.415,0.601c-0.514,0.035-0.909,0.026-1.175,0.038c-0.266,0.006-0.402,0.01-0.402,0.01H53.059z     M53.062,44.529c0,0,0.136-0.004,0.398-0.011c0.263-0.012,0.654-0.005,1.161-0.041c1.016-0.06,2.507-0.205,4.364-0.607    c0.93-0.193,1.944-0.479,3.032-0.831c1.087-0.364,2.239-0.823,3.438-1.384c2.387-1.133,4.953-2.723,7.378-4.898    c1.204-1.092,2.367-2.336,3.397-3.75c1.004-1.421,1.929-3.022,2.312-4.823c0.051-0.223,0.072-0.445,0.109-0.669    c0.026-0.229,0.027-0.47,0.044-0.707c-0.017-0.209-0.02-0.455-0.043-0.682c-0.036-0.23-0.062-0.463-0.106-0.695    c-0.182-0.926-0.5-1.839-0.892-2.73c-0.784-1.785-1.848-3.494-3.078-5.11c-2.468-3.23-5.621-6.123-9.281-8.319    c-1.837-1.085-3.802-1.982-5.86-2.619c-1.035-0.291-2.081-0.564-3.151-0.711c-0.533-0.096-1.066-0.138-1.6-0.187    c-0.265-0.032-0.54-0.036-0.812-0.043l-0.811-0.025c-2.158,0.009-4.311,0.352-6.375,0.967c-2.058,0.637-4.024,1.534-5.86,2.619    c-3.659,2.197-6.813,5.089-9.281,8.319c-1.232,1.616-2.296,3.325-3.079,5.11c-0.392,0.891-0.711,1.805-0.891,2.73    c-0.046,0.23-0.07,0.458-0.106,0.686c-0.023,0.228-0.029,0.486-0.043,0.701c0.015,0.23,0.017,0.459,0.042,0.687    c0.038,0.227,0.059,0.455,0.111,0.679c0.384,1.8,1.308,3.401,2.311,4.823c1.031,1.414,2.193,2.658,3.398,3.75    c2.424,2.175,4.99,3.765,7.379,4.898c1.198,0.561,2.351,1.02,3.437,1.384c1.089,0.352,2.103,0.638,3.033,0.831    c1.857,0.403,3.35,0.548,4.361,0.606c0.506,0.036,0.902,0.029,1.166,0.042c0.264,0.007,0.4,0.011,0.4,0.011H53.062z"/></g><path fill="#000000" d="M52.803,45.443c-1.053,0.756-3.401,0.709-4.217,0c-0.815-0.709-0.432-3.462-0.432-3.462l4.633-1.077   L52.803,45.443z"/><path d="M50.644,46.145c-0.929,0-1.736-0.219-2.158-0.587c-0.868-0.755-0.499-3.482-0.482-3.598l0.014-0.104l4.922-1.144   l0.016,4.809l-0.063,0.045C52.38,45.934,51.561,46.145,50.644,46.145z M48.292,42.105c-0.1,0.814-0.196,2.708,0.394,3.222   c0.363,0.316,1.114,0.512,1.958,0.512c0.803,0,1.544-0.177,2.006-0.477l-0.015-4.267L48.292,42.105z"/><path fill="#000000" d="M52.772,45.443c1.054,0.756,3.401,0.709,4.217,0c0.816-0.709,0.431-3.462,0.431-3.462l-4.633-1.077   L52.772,45.443z"/><path d="M54.932,46.145L54.932,46.145c-0.918,0-1.736-0.211-2.248-0.579l-0.064-0.045l0.017-4.809l4.922,1.144l0.014,0.104   c0.016,0.116,0.385,2.843-0.481,3.598C56.666,45.926,55.859,46.145,54.932,46.145z M52.925,45.363   c0.462,0.3,1.203,0.477,2.007,0.477c0.844,0,1.594-0.196,1.958-0.512c0.591-0.514,0.494-2.408,0.394-3.222l-4.344-1.01   L52.925,45.363z"/><g><path fill="#000000" d="M52.787,40.904c0,0-2.188,1.944-5.959,0.941c-7.608-2.023-10.009-9.618,5.975-9.618    c15.983,0,13.63,7.911,5.944,9.618C54.554,42.777,52.787,40.904,52.787,40.904z"/></g><g><path d="M52.781,41.105c-0.01,0.006-0.018,0.014-0.029,0.022c-0.09,0.068-0.224,0.163-0.406,0.273    c-0.365,0.219-0.931,0.502-1.701,0.698c-0.768,0.196-1.746,0.289-2.84,0.138c-1.093-0.162-2.282-0.524-3.494-1.124    c-0.604-0.302-1.208-0.676-1.777-1.143c-0.564-0.468-1.099-1.037-1.467-1.753c-0.177-0.359-0.315-0.755-0.352-1.177    c-0.043-0.42,0.02-0.859,0.177-1.261c0.324-0.814,0.996-1.422,1.718-1.871c0.732-0.449,1.54-0.771,2.371-1.016    c0.831-0.25,1.69-0.419,2.559-0.555c1.74-0.261,3.521-0.351,5.302-0.356c1.773,0.009,3.561,0.103,5.298,0.38    c0.868,0.142,1.726,0.323,2.554,0.583c0.828,0.257,1.631,0.592,2.354,1.056c0.716,0.462,1.368,1.087,1.685,1.901    c0.152,0.402,0.216,0.84,0.174,1.259c-0.033,0.421-0.171,0.818-0.345,1.179c-0.365,0.719-0.903,1.289-1.475,1.75    c-0.573,0.461-1.187,0.823-1.8,1.109c-1.221,0.577-2.452,0.87-3.523,1.005c-1.099,0.134-2.065,0.082-2.842-0.097    c-0.775-0.179-1.351-0.454-1.712-0.685c-0.182-0.118-0.314-0.216-0.4-0.291C52.799,41.121,52.791,41.113,52.781,41.105z     M52.898,40.799c0,0,0.029,0.031,0.109,0.096c0.074,0.065,0.199,0.155,0.367,0.261c0.338,0.21,0.881,0.46,1.619,0.622    c0.733,0.16,1.67,0.197,2.713,0.057c1.062-0.15,2.222-0.446,3.404-1.003c0.589-0.278,1.173-0.627,1.713-1.065    c0.536-0.438,1.031-0.973,1.354-1.617c0.32-0.639,0.421-1.404,0.146-2.092c-0.27-0.688-0.85-1.254-1.521-1.682    c-0.675-0.431-1.445-0.749-2.247-0.994c-0.801-0.249-1.64-0.422-2.492-0.556c-1.705-0.266-3.465-0.351-5.228-0.351    c-1.756-0.003-3.521,0.077-5.229,0.326c-0.852,0.129-1.693,0.291-2.499,0.531c-0.806,0.233-1.581,0.54-2.265,0.956    c-0.678,0.416-1.273,0.967-1.548,1.651c-0.282,0.683-0.174,1.449,0.15,2.086c0.327,0.643,0.82,1.181,1.353,1.625    c0.536,0.444,1.113,0.806,1.694,1.099c1.164,0.58,2.328,0.949,3.364,1.116c1.043,0.158,1.974,0.082,2.706-0.094    c0.735-0.179,1.275-0.439,1.622-0.642c0.174-0.101,0.301-0.189,0.383-0.249c0.084-0.062,0.119-0.092,0.119-0.093l0.109-0.097    L52.898,40.799z"/></g><ellipse fill="#000000" cx="39.519" cy="25.059" rx="3.508" ry="6.379"/><path d="M39.519,31.591c-2.018,0-3.66-2.931-3.66-6.533c0-3.601,1.642-6.532,3.66-6.532s3.661,2.931,3.661,6.532   C43.179,28.661,41.537,31.591,39.519,31.591z M39.519,18.832c-1.85,0-3.355,2.793-3.355,6.227s1.505,6.228,3.355,6.228   s3.355-2.794,3.355-6.228S41.369,18.832,39.519,18.832z"/><ellipse cx="39.137" cy="24.64" rx="2.81" ry="5.386"/><circle fill="#000000" cx="38.448" cy="21.397" r="0.863"/><ellipse fill="#000000" cx="66.606" cy="25.059" rx="3.509" ry="6.379"/><path d="M66.606,31.591c-2.018,0-3.659-2.931-3.659-6.533c0-3.601,1.642-6.532,3.659-6.532c2.019,0,3.66,2.931,3.66,6.532   C70.267,28.661,68.625,31.591,66.606,31.591z M66.606,18.832c-1.851,0-3.355,2.793-3.355,6.227s1.505,6.228,3.355,6.228   c1.852,0,3.355-2.794,3.355-6.228S68.458,18.832,66.606,18.832z"/><ellipse cx="66.987" cy="24.64" rx="2.81" ry="5.386"/><circle fill="#000000" cx="67.677" cy="21.397" r="0.863"/><ellipse cx="52.787" cy="35.012" rx="3.491" ry="1.886"/><ellipse fill="#000000" cx="52.787" cy="34.149" rx="1.047" ry="0.502"/><g><path fill="#000000" d="M30.554,18.604c-1.486-1.171-2.441-2.988-2.441-5.028c0-3.535,2.865-6.399,6.399-6.399    c2.796,0,5.173,1.793,6.044,4.293"/></g><g><path d="M30.483,18.684c0,0-0.07-0.061-0.201-0.176c-0.129-0.118-0.331-0.269-0.549-0.525c-0.237-0.237-0.477-0.559-0.735-0.939    c-0.112-0.201-0.244-0.409-0.358-0.64c-0.096-0.239-0.227-0.48-0.308-0.752c-0.078-0.272-0.185-0.551-0.225-0.855    c-0.027-0.15-0.054-0.304-0.083-0.459c-0.01-0.158-0.02-0.318-0.03-0.48c-0.005-0.082-0.01-0.163-0.016-0.245    c-0.004-0.096,0.005-0.166,0.007-0.251c0.01-0.164,0.01-0.328,0.027-0.497c0.025-0.17,0.05-0.344,0.076-0.518    c0.025-0.174,0.081-0.342,0.121-0.516c0.187-0.685,0.492-1.364,0.913-1.983c0.417-0.621,0.962-1.169,1.579-1.613    c0.618-0.444,1.313-0.78,2.034-0.987c0.182-0.044,0.361-0.105,0.544-0.133c0.184-0.029,0.367-0.058,0.548-0.086    c0.184-0.011,0.367-0.021,0.548-0.032c0.199-0.017,0.358,0.006,0.536,0.007c0.719,0.039,1.404,0.196,2.015,0.434    c0.613,0.238,1.154,0.557,1.61,0.904c0.458,0.346,0.833,0.724,1.124,1.089c0.3,0.359,0.51,0.711,0.677,1.001    c0.154,0.299,0.269,0.536,0.33,0.706c0.066,0.167,0.102,0.257,0.102,0.257c0.047,0.117-0.011,0.25-0.128,0.297    s-0.25-0.011-0.297-0.128l-0.001-0.002l-0.006-0.016c0,0-0.032-0.083-0.092-0.239c-0.055-0.159-0.161-0.382-0.3-0.662    c-0.154-0.272-0.346-0.604-0.623-0.941c-0.268-0.344-0.614-0.701-1.041-1.029c-0.424-0.33-0.928-0.635-1.502-0.865    c-0.573-0.23-1.213-0.383-1.883-0.427c-0.169-0.003-0.36-0.027-0.514-0.011c-0.171,0.007-0.344,0.015-0.518,0.023    c-0.172,0.025-0.345,0.051-0.519,0.077c-0.174,0.024-0.343,0.081-0.516,0.12c-0.684,0.188-1.346,0.499-1.937,0.915    c-0.589,0.415-1.113,0.931-1.517,1.519c-0.407,0.585-0.705,1.229-0.891,1.882c-0.039,0.165-0.094,0.326-0.12,0.489    c-0.026,0.163-0.052,0.325-0.077,0.484c-0.02,0.164-0.021,0.332-0.033,0.494c-0.002,0.079-0.013,0.17-0.009,0.236    c0.004,0.078,0.008,0.157,0.013,0.235c0.008,0.156,0.016,0.31,0.024,0.461c0.025,0.15,0.051,0.296,0.075,0.441    c0.035,0.293,0.135,0.561,0.207,0.824c0.075,0.262,0.199,0.495,0.288,0.727c0.108,0.224,0.233,0.425,0.339,0.62    c0.246,0.369,0.475,0.683,0.696,0.909c0.2,0.243,0.406,0.403,0.533,0.519c0.129,0.117,0.199,0.178,0.199,0.178    c0.044,0.039,0.048,0.105,0.009,0.15C30.594,18.717,30.527,18.721,30.483,18.684z"/></g><g><path fill="#000000" d="M37.221,9.278c-0.793-0.5-1.728-0.783-2.71-0.784c-2.802,0-5.081,2.28-5.081,5.082"/></g><g><path d="M37.149,9.413c0,0-0.149-0.082-0.408-0.225c-0.065-0.035-0.137-0.074-0.215-0.117c-0.08-0.03-0.167-0.062-0.259-0.097    c-0.185-0.07-0.389-0.159-0.635-0.201c-0.121-0.028-0.246-0.056-0.376-0.086c-0.131-0.021-0.27-0.025-0.411-0.039    c-0.14-0.005-0.291-0.036-0.432-0.023c-0.151,0.009-0.311,0.007-0.464,0.024c-0.152,0.023-0.306,0.042-0.461,0.069    c-0.155,0.039-0.312,0.079-0.469,0.118c-0.153,0.056-0.309,0.108-0.463,0.168c-0.148,0.072-0.301,0.138-0.447,0.215    c-0.141,0.086-0.289,0.165-0.425,0.258c-0.131,0.1-0.27,0.19-0.394,0.297c-0.25,0.211-0.477,0.441-0.675,0.682    c-0.093,0.125-0.192,0.243-0.275,0.368c-0.079,0.128-0.156,0.253-0.231,0.375c-0.063,0.128-0.125,0.253-0.185,0.374    c-0.059,0.122-0.097,0.247-0.143,0.363c-0.049,0.116-0.08,0.232-0.108,0.343c-0.028,0.111-0.061,0.214-0.081,0.314    c-0.03,0.202-0.066,0.376-0.079,0.521c-0.018,0.292-0.028,0.46-0.028,0.46v0.005c-0.002,0.029-0.027,0.051-0.057,0.05    c-0.029-0.002-0.051-0.027-0.05-0.056c0,0,0.007-0.171,0.02-0.471c0.01-0.149,0.044-0.328,0.072-0.536    c0.019-0.102,0.05-0.209,0.077-0.323c0.027-0.114,0.057-0.233,0.104-0.354c0.046-0.12,0.083-0.25,0.141-0.375    c0.059-0.125,0.121-0.256,0.184-0.39c0.075-0.126,0.152-0.257,0.231-0.391c0.083-0.13,0.183-0.254,0.277-0.386    c0.201-0.252,0.431-0.495,0.687-0.718c0.126-0.114,0.268-0.21,0.403-0.316c0.14-0.1,0.291-0.184,0.437-0.277    c0.151-0.083,0.309-0.155,0.462-0.232c0.159-0.065,0.321-0.123,0.48-0.184c0.165-0.044,0.328-0.089,0.489-0.132    c0.165-0.032,0.331-0.056,0.493-0.083c0.161-0.02,0.315-0.021,0.468-0.033c0.164-0.017,0.311,0.012,0.462,0.015    c0.148,0.012,0.295,0.013,0.433,0.034c0.138,0.028,0.271,0.056,0.398,0.083c0.258,0.04,0.484,0.131,0.687,0.205    c0.101,0.037,0.195,0.071,0.283,0.103c0.08,0.041,0.152,0.08,0.218,0.114c0.262,0.138,0.412,0.216,0.412,0.216    c0.074,0.04,0.103,0.131,0.064,0.206c-0.04,0.075-0.132,0.103-0.206,0.064C37.151,9.413,37.15,9.413,37.149,9.413z"/></g><path fill="none" stroke="#000000" stroke-miterlimit="10" d="M34.511,19.974"/><g><path fill="#000000" d="M27.229,26.815c0-2.925,2.213-7.383,5.899-11.472"/></g><g><path d="M27.077,26.808c0,0,0.007-0.205,0.021-0.564c0.022-0.183,0.044-0.408,0.082-0.662c0.052-0.248,0.088-0.536,0.174-0.836    c0.04-0.15,0.081-0.309,0.124-0.471c0.051-0.161,0.103-0.326,0.157-0.497c0.112-0.338,0.243-0.691,0.391-1.051    c0.076-0.179,0.153-0.36,0.231-0.545c0.086-0.181,0.172-0.364,0.259-0.548c0.175-0.369,0.372-0.733,0.568-1.098    c0.204-0.36,0.407-0.722,0.625-1.064c0.208-0.351,0.435-0.682,0.648-1.006c0.215-0.323,0.438-0.624,0.642-0.915    c0.214-0.284,0.417-0.553,0.604-0.799c0.194-0.243,0.373-0.464,0.531-0.66c0.156-0.199,0.305-0.361,0.421-0.5    c0.236-0.274,0.371-0.431,0.371-0.431c0.098-0.115,0.271-0.127,0.385-0.03c0.114,0.099,0.127,0.271,0.029,0.386    c0,0-0.001,0.001-0.002,0.002l-0.006,0.007c0,0-0.136,0.152-0.373,0.418c-0.116,0.135-0.266,0.292-0.423,0.483    c-0.159,0.19-0.339,0.405-0.535,0.64c-0.188,0.24-0.393,0.5-0.609,0.776c-0.206,0.283-0.431,0.576-0.648,0.89    c-0.216,0.314-0.444,0.636-0.655,0.976c-0.221,0.335-0.427,0.686-0.634,1.037c-0.201,0.354-0.4,0.708-0.578,1.067    c-0.089,0.179-0.177,0.357-0.264,0.533c-0.08,0.179-0.159,0.356-0.236,0.53c-0.152,0.349-0.285,0.692-0.402,1.02    c-0.055,0.165-0.109,0.326-0.162,0.48c-0.044,0.158-0.086,0.309-0.128,0.456c-0.089,0.291-0.128,0.565-0.185,0.806    c-0.034,0.239-0.063,0.449-0.088,0.621c-0.02,0.359-0.031,0.564-0.031,0.564c-0.004,0.083-0.076,0.147-0.16,0.144    C27.138,26.961,27.074,26.891,27.077,26.808z"/></g><g><path fill="#000000" d="M75.571,18.604c1.487-1.171,2.441-2.988,2.441-5.028c0-3.535-2.865-6.399-6.398-6.399    c-2.796,0-5.173,1.793-6.045,4.293"/></g><g><path d="M75.501,18.524c0,0,0.068-0.062,0.199-0.178c0.128-0.116,0.332-0.276,0.532-0.519c0.222-0.225,0.45-0.54,0.696-0.909    c0.105-0.194,0.23-0.396,0.339-0.62c0.088-0.231,0.213-0.464,0.288-0.727c0.07-0.262,0.173-0.53,0.208-0.824    c0.022-0.144,0.049-0.292,0.073-0.441c0.009-0.151,0.018-0.305,0.025-0.461c0.003-0.078,0.009-0.157,0.012-0.235    c0.004-0.065-0.007-0.158-0.009-0.236c-0.011-0.162-0.014-0.331-0.033-0.494c-0.024-0.16-0.051-0.321-0.077-0.484    c-0.024-0.163-0.081-0.325-0.12-0.49c-0.186-0.653-0.483-1.297-0.889-1.882c-0.404-0.588-0.929-1.104-1.518-1.519    c-0.591-0.417-1.253-0.727-1.937-0.915c-0.173-0.04-0.342-0.096-0.516-0.12c-0.174-0.026-0.346-0.052-0.519-0.077    c-0.174-0.009-0.346-0.017-0.519-0.024c-0.152-0.016-0.345,0.008-0.513,0.011c-0.67,0.044-1.31,0.197-1.883,0.427    s-1.078,0.535-1.501,0.865c-0.428,0.328-0.773,0.685-1.041,1.029c-0.277,0.338-0.47,0.669-0.622,0.941    c-0.141,0.28-0.246,0.502-0.301,0.662c-0.062,0.156-0.093,0.239-0.093,0.239l-0.008,0.016c-0.045,0.119-0.177,0.177-0.295,0.131    c-0.118-0.046-0.176-0.178-0.13-0.296v-0.001c0,0,0.035-0.09,0.102-0.257c0.06-0.17,0.176-0.407,0.331-0.706    c0.167-0.291,0.378-0.642,0.677-1.001c0.291-0.365,0.666-0.743,1.123-1.089c0.457-0.348,0.996-0.666,1.61-0.904    c0.613-0.238,1.297-0.396,2.014-0.434c0.18-0.001,0.34-0.024,0.538-0.007c0.182,0.011,0.364,0.021,0.547,0.032    c0.183,0.028,0.365,0.058,0.549,0.086c0.185,0.028,0.361,0.089,0.545,0.133c0.721,0.207,1.416,0.542,2.033,0.987    c0.617,0.444,1.162,0.992,1.58,1.613c0.421,0.619,0.725,1.298,0.913,1.983c0.04,0.174,0.095,0.341,0.121,0.516    c0.024,0.174,0.051,0.348,0.075,0.518c0.018,0.169,0.018,0.333,0.026,0.497c0.004,0.085,0.013,0.155,0.007,0.251    c-0.003,0.082-0.009,0.164-0.014,0.245c-0.011,0.163-0.021,0.323-0.031,0.48c-0.028,0.155-0.055,0.309-0.083,0.459    c-0.039,0.305-0.146,0.583-0.225,0.855c-0.079,0.271-0.211,0.513-0.307,0.752c-0.114,0.231-0.247,0.438-0.358,0.64    c-0.26,0.38-0.499,0.702-0.736,0.939c-0.218,0.256-0.42,0.407-0.549,0.525c-0.132,0.115-0.202,0.176-0.202,0.176    c-0.042,0.038-0.108,0.033-0.147-0.011C75.454,18.629,75.459,18.562,75.501,18.524z"/></g><g><path fill="#000000" d="M68.904,9.278c0.793-0.5,1.728-0.783,2.71-0.784c2.801,0,5.08,2.28,5.08,5.082"/></g><g><path d="M68.832,9.144c0,0,0.149-0.079,0.411-0.216c0.065-0.034,0.139-0.073,0.218-0.114c0.087-0.032,0.184-0.066,0.283-0.103    c0.202-0.074,0.429-0.165,0.686-0.205c0.129-0.027,0.262-0.055,0.399-0.083c0.139-0.021,0.284-0.021,0.433-0.034    c0.15-0.003,0.299-0.032,0.462-0.015c0.153,0.012,0.308,0.013,0.468,0.033c0.161,0.027,0.328,0.051,0.494,0.083    c0.161,0.043,0.325,0.088,0.488,0.132c0.16,0.061,0.321,0.118,0.479,0.184c0.155,0.078,0.312,0.149,0.463,0.232    c0.146,0.093,0.297,0.178,0.436,0.277c0.136,0.106,0.278,0.203,0.404,0.316c0.255,0.223,0.485,0.466,0.688,0.718    c0.093,0.132,0.191,0.255,0.276,0.386c0.079,0.134,0.156,0.264,0.231,0.391c0.063,0.134,0.125,0.264,0.183,0.39    c0.059,0.126,0.096,0.255,0.141,0.375c0.048,0.121,0.079,0.24,0.105,0.354c0.026,0.114,0.059,0.221,0.076,0.323    c0.028,0.208,0.063,0.387,0.072,0.536c0.014,0.299,0.019,0.471,0.019,0.471c0.002,0.029-0.021,0.054-0.051,0.056    c-0.028,0.001-0.053-0.022-0.055-0.05v-0.005c0,0-0.01-0.167-0.027-0.46c-0.015-0.146-0.05-0.32-0.079-0.521    c-0.021-0.1-0.055-0.203-0.081-0.314c-0.028-0.111-0.06-0.227-0.109-0.343c-0.046-0.116-0.084-0.241-0.143-0.363    c-0.06-0.121-0.121-0.246-0.185-0.374c-0.075-0.123-0.152-0.247-0.231-0.375c-0.085-0.125-0.183-0.243-0.276-0.368    c-0.198-0.241-0.425-0.471-0.675-0.682c-0.123-0.107-0.262-0.197-0.394-0.297c-0.136-0.093-0.283-0.172-0.426-0.258    c-0.146-0.077-0.299-0.143-0.446-0.215c-0.154-0.06-0.31-0.112-0.462-0.168c-0.158-0.039-0.315-0.079-0.47-0.118    c-0.156-0.027-0.312-0.045-0.461-0.069c-0.154-0.017-0.314-0.015-0.466-0.024c-0.142-0.013-0.291,0.018-0.432,0.023    c-0.141,0.014-0.278,0.017-0.41,0.039c-0.13,0.03-0.255,0.058-0.376,0.086c-0.246,0.042-0.452,0.131-0.635,0.201    c-0.093,0.035-0.179,0.067-0.26,0.097c-0.077,0.043-0.149,0.082-0.215,0.117c-0.26,0.143-0.407,0.225-0.407,0.225    c-0.074,0.04-0.167,0.013-0.208-0.061c-0.04-0.074-0.014-0.167,0.06-0.208C68.828,9.145,68.832,9.144,68.832,9.144z"/></g><g><path fill="#000000" d="M78.896,26.815c0-2.925-2.213-7.383-5.899-11.472"/></g><g><path d="M78.742,26.822c0,0-0.01-0.206-0.033-0.564c-0.024-0.172-0.056-0.381-0.091-0.621c-0.059-0.239-0.099-0.514-0.188-0.804    c-0.042-0.146-0.086-0.297-0.13-0.454c-0.053-0.155-0.109-0.315-0.165-0.479c-0.118-0.328-0.254-0.669-0.406-1.018    c-0.079-0.173-0.158-0.349-0.237-0.528c-0.09-0.175-0.178-0.352-0.268-0.53c-0.181-0.357-0.381-0.71-0.583-1.063    c-0.208-0.349-0.415-0.698-0.639-1.031c-0.213-0.339-0.442-0.659-0.659-0.972c-0.22-0.312-0.446-0.603-0.652-0.885    c-0.218-0.273-0.422-0.532-0.611-0.771c-0.197-0.233-0.378-0.446-0.538-0.636c-0.156-0.191-0.308-0.347-0.425-0.48    c-0.237-0.264-0.373-0.416-0.373-0.416l-0.007-0.007c-0.127-0.141-0.116-0.356,0.024-0.483c0.141-0.126,0.356-0.115,0.483,0.025    c0.002,0.002,0.005,0.005,0.007,0.007c0,0,0.134,0.158,0.369,0.435c0.114,0.139,0.264,0.302,0.419,0.502    c0.158,0.198,0.335,0.42,0.528,0.664c0.187,0.249,0.387,0.519,0.602,0.804c0.202,0.293,0.424,0.596,0.638,0.92    c0.213,0.325,0.437,0.658,0.644,1.01c0.218,0.346,0.419,0.708,0.621,1.07c0.194,0.366,0.39,0.732,0.563,1.102    c0.087,0.185,0.171,0.369,0.257,0.55c0.076,0.185,0.153,0.368,0.229,0.548c0.146,0.36,0.274,0.714,0.387,1.055    c0.053,0.17,0.104,0.337,0.153,0.497c0.042,0.163,0.082,0.322,0.123,0.473c0.084,0.301,0.117,0.589,0.17,0.837    c0.035,0.255,0.057,0.48,0.078,0.664c0.01,0.36,0.018,0.564,0.018,0.564c0.001,0.084-0.065,0.155-0.148,0.157    C78.818,26.968,78.748,26.904,78.742,26.822z"/></g><ellipse fill="#000000" cx="52.772" cy="69.896" rx="15.768" ry="20.031"/><path d="M52.772,90.176c-8.833,0-16.018-9.098-16.018-20.279s7.185-20.28,16.018-20.28c8.831,0,16.018,9.098,16.018,20.28   S61.604,90.176,52.772,90.176z M52.772,50.116c-8.557,0-15.52,8.875-15.52,19.781c0,10.908,6.962,19.781,15.52,19.781   c8.558,0,15.519-8.873,15.519-19.781C68.291,58.99,61.33,50.116,52.772,50.116z"/><path fill="#000000" d="M31.784,55.309l7.106,9.809c1.858,1.859,4.871,1.859,6.729,0c1.858-1.857,1.858-4.871,0-6.729l-9.666-7.25"/><path d="M42.254,66.76c-1.282,0-2.565-0.49-3.541-1.465l-0.026-0.029l-7.106-9.811l0.404-0.293l7.094,9.793   c1.759,1.744,4.609,1.74,6.363-0.014c0.852-0.852,1.321-1.984,1.321-3.188c0-1.199-0.464-2.326-1.309-3.178l-9.652-7.238l0.3-0.399   l9.692,7.272c0.946,0.947,1.467,2.205,1.467,3.543c0,1.336-0.521,2.594-1.467,3.541C44.819,66.27,43.537,66.76,42.254,66.76z"/><path fill="#000000" d="M69.408,51.281L59.6,58.389c-1.859,1.857-1.859,4.871,0,6.729c1.856,1.859,4.871,1.859,6.728,0l7.251-9.666   "/><path d="M62.965,66.762L62.965,66.762c-1.338,0-2.597-0.521-3.542-1.469c-0.946-0.945-1.468-2.203-1.468-3.541   s0.521-2.596,1.468-3.541l0.029-0.025l9.811-7.105l0.292,0.404l-9.793,7.094c-0.844,0.85-1.308,1.977-1.308,3.174   c0,1.205,0.469,2.338,1.321,3.189c0.852,0.852,1.983,1.32,3.189,1.32c1.196,0,2.323-0.465,3.174-1.309l7.241-9.65l0.396,0.299   l-7.271,9.691C65.559,66.24,64.301,66.762,62.965,66.762z"/><path fill="#000000" d="M63.469,93.791c1.477,1.418,12.61,1.635,14.743,0c2.132-1.637-3.302-6.508-7.372-6.508   C66.769,87.283,61.99,92.371,63.469,93.791z"/><path d="M70.937,95.188L70.937,95.188c-3.173,0-6.767-0.377-7.642-1.217c-0.285-0.273-0.543-0.801-0.156-1.762   c0.838-2.084,4.443-5.176,7.701-5.176c3.217,0,7.221,2.875,7.977,5.102c0.262,0.771,0.101,1.43-0.453,1.854   C76.913,95.102,72.312,95.188,70.937,95.188z M70.84,87.533c-3.014,0-6.468,2.949-7.239,4.863c-0.154,0.387-0.274,0.91,0.041,1.213   c0.648,0.625,3.718,1.078,7.295,1.078c3.459,0,6.256-0.43,7.122-1.096c0.389-0.297,0.481-0.721,0.285-1.297   C77.654,90.26,73.817,87.533,70.84,87.533z"/><path fill="#000000" d="M28.537,93.791c1.477,1.418,12.61,1.635,14.744,0c2.132-1.637-3.3-6.508-7.372-6.508   C31.837,87.283,27.059,92.371,28.537,93.791z"/><path d="M36.005,95.188C36.004,95.188,36.004,95.188,36.005,95.188c-3.174,0-6.767-0.377-7.641-1.217   c-0.285-0.273-0.543-0.801-0.157-1.762c0.839-2.084,4.443-5.176,7.702-5.176c3.217,0,7.221,2.875,7.977,5.102   c0.261,0.771,0.101,1.43-0.454,1.854C41.981,95.102,37.381,95.188,36.005,95.188z M35.908,87.533c-3.013,0-6.469,2.949-7.239,4.863   c-0.155,0.387-0.275,0.91,0.04,1.213c0.649,0.625,3.718,1.078,7.295,1.078c3.46,0,6.256-0.43,7.124-1.096   c0.387-0.297,0.48-0.721,0.285-1.297C42.722,90.26,38.885,87.533,35.908,87.533z"/></g></svg>
